<svg width="67" height="67" viewBox="0 0 67 67" fill="none" xmlns="http://www.w3.org/2000/svg">
<g clip-path="url(#clip0_1515_1698)">
<path d="M57.1878 9.81186C50.8607 3.48466 42.4481 0 33.4998 0C30.3762 0 27.283 0.430005 24.3052 1.27811C23.7265 1.44299 23.3907 2.04599 23.5557 2.62491C23.7206 3.20371 24.3228 3.53975 24.9025 3.37448C27.6859 2.58173 30.5784 2.17973 33.4998 2.17973C41.8658 2.17973 49.731 5.43761 55.6465 11.3533C61.5622 17.2689 64.82 25.1341 64.82 33.4999C64.82 45.0539 58.4906 55.6325 48.3019 61.1073C47.7718 61.3921 47.5726 62.053 47.8576 62.5832C48.0544 62.9494 48.4301 63.1576 48.8187 63.1576C48.9927 63.1576 49.1695 63.1157 49.3336 63.0275C60.2305 57.1722 66.9998 45.8581 66.9998 33.5001C66.9996 24.5518 63.515 16.1393 57.1878 9.81186Z" fill="#EF2409"/>
<path d="M47.73 13.9834C47.6992 13.6599 47.5257 13.367 47.2568 13.1845C43.1898 10.4252 38.4327 8.9668 33.5002 8.9668C19.9729 8.9668 8.96777 19.972 8.96777 33.4992C8.96777 38.4314 10.4262 43.1884 13.1854 47.2555C13.3679 47.5246 13.6608 47.6979 13.9844 47.7287C14.0188 47.7319 14.0532 47.7337 14.0875 47.7337C14.3752 47.7337 14.6528 47.6197 14.8582 47.4144L47.4156 14.8571C47.6453 14.6273 47.7606 14.3069 47.73 13.9834ZM14.2771 44.9126C12.2257 41.4668 11.1475 37.5484 11.1475 33.4993C11.1475 21.174 21.1748 11.1468 33.5 11.1468C37.5492 11.1468 41.4677 12.2248 44.9133 14.2764L14.2771 44.9126Z" fill="#EF2409"/>
<path d="M45.563 63.6104C45.358 63.0442 44.7329 62.7521 44.167 62.9568C40.7519 64.1939 37.163 64.8212 33.5001 64.8212C25.1342 64.8212 17.269 61.5633 11.3534 55.6476C5.43761 49.732 2.17973 41.8668 2.17973 33.5008C2.17973 27.3793 3.94555 21.4502 7.28666 16.3541C10.5435 11.3859 15.1136 7.45909 20.5028 4.99762C21.0503 4.74755 21.2915 4.10097 21.0414 3.55345C20.7914 3.00594 20.1447 2.76476 19.5973 3.0147C13.8338 5.64721 8.94635 9.84662 5.46378 15.159C1.88935 20.6113 0 26.9538 0 33.5008C0 42.449 3.48466 50.8616 9.81212 57.1889C16.1396 63.5162 24.552 67.0007 33.5002 67.0007C37.417 67.0009 41.2556 66.3298 44.9095 65.0063C45.4753 64.8014 45.7678 64.1765 45.563 63.6104Z" fill="#EF2409"/>
<path d="M53.8151 19.7436C53.6327 19.4746 53.3397 19.3013 53.0162 19.2704C52.6931 19.2401 52.3721 19.355 52.1423 19.5847L19.5848 52.1421C19.355 52.3719 19.2399 52.6922 19.2705 53.0158C19.3012 53.3393 19.4746 53.6323 19.7437 53.8149C23.8107 56.5742 28.5678 58.0326 33.5003 58.0326C47.0275 58.0326 58.0327 47.0274 58.0327 33.5002C58.0326 28.5676 56.5743 23.8106 53.8151 19.7436ZM33.5002 55.8526C29.451 55.8526 25.5325 54.7746 22.0868 52.723L52.7233 22.0868C54.7745 25.5322 55.8528 29.4512 55.8528 33.5001C55.8527 45.8254 45.8254 55.8526 33.5002 55.8526Z" fill="#EF2409"/>
</g>
<defs>
<clipPath id="clip0_1515_1698">
<rect width="67" height="67" fill="white"/>
</clipPath>
</defs>
</svg>
